<?xml version="1.0" standalone="no"?>
<!DOCTYPE svg PUBLIC "-//W3C//DTD SVG 20010904//EN"
 "http://www.w3.org/TR/2001/REC-SVG-20010904/DTD/svg10.dtd">
<svg version="1.0" xmlns="http://www.w3.org/2000/svg"
 width="688.000000pt" height="363.000000pt" viewBox="0 0 688.000000 363.000000"
 preserveAspectRatio="xMidYMid meet">

<g transform="translate(0.000000,363.000000) scale(0.100000,-0.100000)"
fill="#000000" stroke="none">
<path d="M5655 3289 c-62 -25 -120 -80 -148 -139 -16 -35 -21 -64 -21 -130 -1
-75 3 -91 28 -137 17 -31 59 -79 100 -115 38 -35 80 -72 92 -83 12 -11 54 -49
93 -84 95 -84 130 -131 146 -193 36 -136 -53 -253 -201 -265 -51 -5 -70 -2
-109 18 -26 13 -60 38 -75 56 -30 34 -60 116 -60 165 0 31 -24 39 -35 11 -3
-10 -9 -57 -12 -105 -5 -71 -3 -92 11 -112 34 -52 158 -95 276 -96 137 0 235
55 293 163 19 36 22 58 22 152 0 103 -2 113 -28 158 -16 26 -41 56 -55 68
-101 79 -350 317 -368 351 -19 37 -18 132 2 175 36 76 146 119 238 93 55 -15
110 -72 123 -128 5 -19 14 -37 21 -40 9 -3 12 24 12 106 l0 110 -47 6 c-27 3
-93 8 -148 11 -86 4 -107 2 -150 -16z"/>
<path d="M962 3278 c3 -7 18 -16 35 -20 17 -5 43 -22 57 -39 l27 -31 -3 -498
-3 -498 -23 -25 c-13 -14 -40 -27 -63 -31 -25 -4 -39 -12 -39 -21 0 -13 28
-15 190 -15 157 0 190 2 190 14 0 9 -15 17 -40 21 -32 5 -46 15 -65 43 l-25
37 0 487 0 486 25 31 c14 16 41 35 60 41 69 23 34 30 -146 30 -136 0 -180 -3
-177 -12z"/>
<path d="M1772 3278 c3 -7 18 -16 34 -20 16 -4 40 -17 54 -27 l25 -20 0 -510
0 -509 -24 -25 c-13 -15 -40 -28 -63 -32 -23 -4 -37 -12 -35 -18 5 -17 379
-17 384 0 3 7 -13 14 -41 18 -80 12 -80 13 -86 299 -3 138 -3 374 -2 524 l4
272 106 0 c86 0 116 -4 152 -21 89 -40 122 -99 128 -226 4 -81 2 -98 -18 -135
-48 -94 -121 -137 -252 -146 -56 -3 -78 -9 -78 -18 0 -8 9 -14 20 -14 49 0
102 -62 281 -332 73 -109 151 -185 215 -210 28 -11 88 -21 142 -25 78 -5 92
-4 92 9 0 10 -14 18 -41 22 -83 13 -182 105 -299 276 -34 50 -102 138 -137
178 -50 57 -50 59 -11 67 146 32 249 209 219 375 -7 36 -19 79 -27 96 -17 35
-75 104 -88 104 -4 0 -20 8 -34 19 -47 33 -123 41 -378 41 -187 0 -245 -3
-242 -12z"/>
<path d="M3100 3275 c0 -10 10 -15 28 -15 36 0 80 -41 87 -82 3 -18 5 -245 3
-505 -3 -461 -3 -472 -24 -500 -14 -18 -35 -31 -63 -37 -23 -5 -40 -14 -38
-20 2 -7 66 -12 190 -14 151 -2 187 0 187 11 0 7 -21 20 -47 28 -85 25 -83 12
-83 549 0 289 4 479 10 502 9 31 19 41 60 60 28 13 50 26 50 30 0 5 -81 8
-180 8 -153 0 -180 -2 -180 -15z"/>
<path d="M3852 3278 c3 -7 19 -16 37 -19 19 -4 43 -17 55 -28 21 -21 21 -31
27 -414 6 -430 9 -451 68 -539 37 -55 107 -119 161 -147 130 -67 350 -68 482
0 53 27 141 117 167 173 46 94 50 139 51 521 0 265 4 367 13 385 6 14 31 34
55 45 23 11 42 23 42 27 0 5 -71 7 -157 6 -97 -2 -158 -7 -158 -13 0 -5 14
-11 30 -13 17 -2 41 -12 55 -22 l25 -19 0 -398 0 -398 -25 -63 c-40 -102 -107
-161 -227 -201 -123 -41 -245 -15 -337 73 -114 110 -126 168 -126 619 0 333 1
345 21 371 11 14 34 29 51 34 18 4 33 13 36 20 3 9 -40 12 -173 12 -135 0
-176 -3 -173 -12z"/>
<path d="M3410 1672 c-29 -83 -36 -93 -64 -101 -76 -24 -141 -50 -139 -56 2
-6 157 -65 170 -65 1 0 9 -21 17 -47 8 -27 22 -66 31 -88 20 -45 22 -43 55 55
13 36 27 69 32 75 10 11 99 44 141 52 15 3 29 9 32 13 3 4 -36 22 -85 40 -88
32 -89 33 -106 79 -10 25 -25 66 -34 90 l-17 45 -33 -92z"/>
<path d="M745 1532 c-3 -3 -5 -11 -5 -19 0 -11 198 -13 1146 -13 1086 0 1145
1 1142 18 -3 16 -66 17 -1140 18 -625 1 -1140 -1 -1143 -4z"/>
<path d="M3856 1532 c-3 -3 -6 -11 -6 -19 0 -11 198 -13 1150 -13 1126 0 1150
0 1150 19 0 19 -24 19 -1144 19 -630 0 -1147 -2 -1150 -6z"/>
<path d="M5460 1070 c-25 -25 -26 -52 -2 -73 24 -22 55 -21 75 1 22 24 21 55
-1 75 -25 22 -48 21 -72 -3z"/>
<path d="M2362 899 c-64 -60 -70 -79 -26 -79 l24 0 0 -144 c0 -80 4 -156 9
-169 10 -26 56 -47 100 -47 36 1 95 32 99 52 3 14 -3 16 -32 11 -89 -14 -106
15 -106 183 l0 114 70 0 c68 0 70 1 70 25 0 24 -2 25 -65 25 l-65 0 0 39 c0
22 -3 42 -7 44 -5 3 -36 -22 -71 -54z"/>
<path d="M2750 892 c0 -5 -22 -19 -50 -31 -56 -24 -61 -33 -26 -49 21 -9 25
-20 31 -77 4 -36 3 -100 -1 -143 -8 -70 -11 -78 -37 -90 -15 -7 -25 -17 -22
-23 7 -10 198 -13 208 -2 4 3 -10 16 -30 28 l-38 21 -3 99 c-5 161 25 218 96
181 30 -15 33 -15 52 4 34 34 23 61 -30 75 -20 5 -34 -2 -67 -30 l-42 -35 -3
37 c-2 27 -8 39 -20 41 -10 2 -18 -1 -18 -6z"/>
<path d="M3626 881 c-10 -11 -31 -23 -47 -26 -31 -7 -50 -26 -31 -33 37 -12
42 -32 42 -167 l0 -134 -30 -16 c-52 -27 -35 -35 70 -35 107 0 123 9 65 37
l-35 17 0 126 c0 123 1 127 25 150 21 20 37 24 80 24 63 0 73 -7 86 -60 10
-47 12 -225 1 -240 -4 -6 -17 -16 -30 -23 -40 -21 -13 -31 84 -31 96 0 119 11
67 31 -15 6 -31 16 -35 22 -4 7 -8 74 -8 150 l0 137 -32 35 c-43 47 -88 54
-151 26 -25 -11 -49 -25 -52 -31 -3 -5 -13 -10 -21 -10 -11 0 -14 9 -12 32 4
37 -12 46 -36 19z"/>
<path d="M4668 868 c-55 -28 -74 -48 -45 -48 25 0 37 -50 37 -158 0 -128 -4
-146 -36 -161 -14 -6 -22 -16 -19 -21 8 -13 182 -13 190 -1 3 6 -10 17 -30 27
l-35 16 0 124 c0 116 1 125 24 151 21 24 32 28 76 28 75 0 87 -26 89 -190 1
-107 -2 -115 -36 -134 -13 -6 -23 -16 -23 -21 0 -11 187 -12 194 -1 3 4 -11
15 -30 26 l-34 18 0 127 c0 121 1 128 24 149 13 12 42 25 65 28 35 5 44 2 71
-25 l30 -30 0 -126 0 -125 -30 -16 c-51 -26 -35 -35 65 -35 100 0 116 9 65 35
l-30 16 0 138 c0 156 -9 187 -66 217 -40 22 -87 13 -148 -28 l-47 -31 -15 22
c-18 25 -65 51 -94 51 -27 0 -120 -40 -120 -51 0 -5 -7 -9 -16 -9 -13 0 -15 7
-10 35 4 19 3 35 -1 34 -4 -1 -34 -14 -65 -31z"/>
<path d="M5499 881 c-13 -10 -39 -22 -56 -25 -39 -9 -41 -21 -8 -48 24 -19 25
-22 25 -153 l0 -134 -30 -16 c-17 -9 -28 -20 -25 -25 8 -13 182 -13 190 -1 3
6 -7 16 -22 23 l-28 13 -3 193 c-1 105 -6 192 -11 192 -5 0 -19 -8 -32 -19z"/>
<path d="M1180 884 c-87 -29 -129 -69 -137 -134 -6 -43 19 -105 48 -121 27
-14 23 -31 -11 -54 -50 -33 -47 -85 7 -110 l34 -17 -36 -26 c-41 -31 -75 -79
-75 -106 0 -35 48 -85 93 -97 51 -14 171 -5 200 14 96 64 143 169 99 223 -28
35 -58 45 -165 55 -111 11 -136 23 -118 56 8 16 24 21 80 25 110 8 161 59 161
161 0 50 13 67 53 67 22 0 28 4 25 18 -3 13 -17 18 -73 23 -39 3 -83 11 -98
18 -29 11 -61 13 -87 5z m87 -73 c55 -82 -2 -212 -79 -182 -41 15 -61 48 -66
104 -4 47 -1 57 23 85 23 28 33 33 64 30 27 -2 40 -11 58 -37z m57 -392 c32
-25 35 -70 6 -117 -23 -38 -54 -52 -116 -52 -116 0 -160 88 -86 173 24 27 160
24 196 -4z"/>
<path d="M1625 865 c-58 -28 -74 -40 -98 -75 -23 -33 -21 -50 4 -50 34 0 59
19 59 45 0 47 86 64 114 23 17 -23 21 -84 8 -105 -4 -7 -41 -26 -82 -44 -41
-17 -85 -40 -97 -52 -34 -30 -31 -81 6 -118 37 -36 80 -38 137 -5 40 23 42 23
58 5 8 -10 27 -21 42 -25 36 -9 94 19 94 46 0 17 -5 19 -31 13 -21 -4 -34 -1
-40 8 -5 8 -9 73 -8 144 1 151 -7 180 -56 200 -45 20 -51 19 -110 -10z m85
-262 c-1 -55 -15 -79 -52 -88 -28 -7 -68 22 -68 48 0 22 34 55 71 71 48 21 49
21 49 -31z"/>
<path d="M2052 883 c-13 -3 -38 -20 -57 -39 -29 -28 -35 -42 -35 -76 0 -35 6
-47 38 -77 21 -20 51 -43 68 -51 40 -20 74 -59 74 -86 0 -24 -42 -64 -67 -64
-29 0 -75 35 -88 68 -21 49 -39 41 -32 -15 6 -55 22 -69 84 -79 101 -15 173
35 173 120 0 40 -5 50 -42 86 -23 22 -47 40 -52 40 -5 0 -27 12 -48 26 -30 21
-38 33 -38 58 0 39 15 56 51 56 41 0 58 -9 75 -41 8 -16 22 -29 30 -29 13 0
15 7 9 37 -9 50 -10 51 -53 63 -38 10 -50 11 -90 3z"/>
<path d="M3171 874 c-99 -35 -154 -109 -155 -209 0 -69 19 -114 67 -154 81
-68 196 -67 277 2 65 55 88 125 70 211 -13 66 -55 116 -120 145 -53 24 -80 25
-139 5z m99 -41 c45 -26 73 -86 77 -167 5 -85 -14 -130 -70 -161 l-36 -20 -44
22 c-58 28 -97 101 -97 179 0 66 12 99 51 135 36 33 76 38 119 12z"/>
<path d="M4265 881 c-105 -26 -178 -115 -176 -217 1 -91 49 -160 130 -189 164
-58 319 80 281 251 -15 65 -52 111 -114 140 -53 25 -71 27 -121 15z m80 -51
c48 -29 75 -94 75 -177 0 -82 -23 -127 -75 -149 -30 -12 -40 -12 -67 0 -50 21
-76 55 -95 128 -16 63 -16 69 0 121 28 88 94 119 162 77z"/>
<path d="M5813 869 c-56 -21 -113 -77 -113 -109 0 -40 64 -17 75 27 8 34 21
43 61 43 44 0 64 -27 64 -84 0 -47 0 -47 -47 -67 -103 -44 -119 -52 -140 -72
-34 -30 -30 -78 8 -116 38 -38 77 -40 136 -7 l41 24 23 -24 c26 -28 58 -30 99
-9 45 24 41 50 -7 46 -42 -3 -46 12 -38 162 6 112 5 125 -14 155 -20 30 -56
53 -84 51 -7 0 -35 -9 -64 -20z m85 -253 c6 -47 -7 -75 -40 -92 -24 -12 -36
-14 -55 -5 -20 9 -24 17 -21 48 3 32 8 39 48 59 54 28 64 26 68 -10z"/>
</g>
</svg>
